<svg id="visual" viewBox="0 0 800 600" width="800" height="600" xmlns="http://www.w3.org/2000/svg" xmlns:xlink="http://www.w3.org/1999/xlink" version="1.1"><g transform="translate(803.2878010232014 -3.8920222976091168)"><path d="M207.5 -333.4C270.4 -194.5 323.8 -130.5 410.6 -16.4C497.4 97.7 617.6 261.8 596.3 387.1C575 512.3 412.2 598.7 239.8 663.3C67.5 727.9 -114.3 770.9 -278.4 727.4C-442.5 684 -588.9 554.3 -604 407.3C-619.2 260.3 -503.1 96 -452.6 -60.5C-402 -217.1 -417 -365.9 -352.5 -504.6C-288 -643.2 -144 -771.6 -35.8 -728.9C72.3 -686.2 144.6 -472.4 207.5 -333.4" fill="#f7d12c"></path></g></svg>