<?xml version="1.0" encoding="utf-8"?>
<svg xmlns="http://www.w3.org/2000/svg" viewBox="0 0 720 630">
  <defs>
    <view id="view-1" viewBox="-53.406 698.818 13.168 6.584">
      <title>View 1</title>
    </view>
  </defs>
  <path style="stroke: rgb(0, 0, 0); fill: rgb(242, 240, 24);" d="M 48.647 276.041 C 45.73 178.953 145.692 158.832 174.577 63.675 C 192.753 3.796 142.694 -100.21 190.493 -123.81 C 266.68 -161.42 319.35 -196.18 412.79 -187.93 C 480.334 -176.29 688.483 -115.4 693.182 -88.193 C 698.987 -43.641 732.534 26.5 732.621 75.127 C 732.78 164.68 751.416 207.168 782.354 271.917 C 807.541 324.634 776.958 415.708 749.242 466.913 C 721.828 517.565 581.578 609.225 500.144 609.735 C 433.758 610.151 340.404 530.139 280.406 457.334 C 231.665 398.189 52.098 390.897 48.647 276.041 Z"/>
</svg>